<?xml version="1.0" encoding="UTF-8" standalone="no"?>
<!DOCTYPE svg PUBLIC "-//W3C//DTD SVG 1.1//EN" "http://www.w3.org/Graphics/SVG/1.1/DTD/svg11.dtd">
<svg width="100%" height="100%" viewBox="0 0 534 535" version="1.1" xmlns="http://www.w3.org/2000/svg" xmlns:xlink="http://www.w3.org/1999/xlink" xml:space="preserve" xmlns:serif="http://www.serif.com/" style="fill-rule:evenodd;clip-rule:evenodd;stroke-linejoin:round;stroke-miterlimit:2;">
    <g transform="matrix(1.462827,0,0,1.462827,-101.191603,-119.893538)">
        <path d="M251.5,81.966C256.349,81.968 257.384,81.604 258.931,86.371C259.112,86.928 261.545,92.829 261.776,93.389C261.937,93.778 275.578,125.289 284.122,141.688C290.636,154.19 290.6,154.194 297.887,166.265C300.942,171.326 311.427,186.356 315.501,190.499C316.919,191.94 326.652,202.212 329.643,204.28C330.372,204.785 337.71,210.76 344.704,215.141C347.766,217.059 347.612,217.258 350.7,219.14C368.847,230.199 377.968,234.207 385.313,237.879C391.738,241.092 391.896,240.692 398.313,243.879C403.73,246.57 403.876,246.198 409.323,248.878C412.767,250.573 412.9,250.197 416.313,251.879C419.739,253.569 419.911,253.143 423.323,254.878C423.867,255.155 423.887,255.098 430.334,257.876C433.063,259.051 434.159,258.514 434.197,261.504C434.293,269.156 434.191,269.578 432.422,270.331C428.909,271.825 429.003,271.981 425.438,273.342C424.869,273.56 424.922,273.67 418.432,276.336C415.492,277.544 415.615,277.744 412.636,278.869C412.575,278.892 377.24,294.501 366.361,301.267C365.361,301.888 359.127,304.873 347.417,312.374C338.29,318.219 335.977,320.223 335.066,321.013C335.05,321.027 328.692,325.389 323.498,330.498C323.143,330.848 316.552,336.423 307.076,349.2C297.232,362.473 290.144,376.524 286.139,383.303C286.013,383.516 281.574,392.196 278.124,399.333C275.009,405.779 275.329,405.896 272.121,412.313C271.52,413.514 263.802,431.051 263.325,432.433C262.803,433.947 261.206,436.93 260.642,438.546C259.382,442.156 259.077,442.001 257.612,445.547C256.792,447.53 255.542,447.229 250.5,447.199C247.404,447.18 247.023,447.18 245.695,444.407C243.554,439.938 243.822,439.85 241.71,435.4C241.418,434.785 241.578,434.725 238.31,427.591C236.259,423.114 236.515,423.033 234.304,418.598C232.304,414.585 232.703,414.425 230.7,410.399C223.621,396.175 202.216,347.366 175.617,326.345C172.571,323.938 172.72,323.77 172.442,323.58C170.497,322.252 170.46,322.345 168.92,321.032C166.029,318.566 153.73,310.198 147.694,307.119C146.413,306.466 145.608,305.026 123.313,293.879C107.428,285.937 107.247,286.383 104.687,285.121C103.242,284.408 100.011,282.559 96.546,281.366C92.959,280.132 93.219,279.585 89.567,278.325C86.745,277.352 86.977,276.846 82.567,275.325C81.921,275.103 82.005,274.916 74.676,272.08C72.676,271.307 70.981,270.361 70.672,270.188C68.905,269.202 69.181,267.191 69.205,262.499C69.223,258.939 70.327,259.322 74.402,257.304C79.468,254.796 80.326,255.472 96.6,247.711C99.437,246.358 99.57,246.713 102.402,245.304C110.417,241.318 110.578,241.711 118.601,237.7C121.722,236.14 163.392,216.901 184.036,195.057C192.568,186.031 192.081,185.641 197.989,177.911C200.883,174.126 209.701,159.975 211.881,155.693C212.181,155.102 212.902,154.751 219.121,142.313C232.039,116.477 231.621,116.313 233.121,113.313C235.396,108.762 239.429,98.745 241.121,95.313C242.703,92.104 242.233,91.926 243.879,88.687C245.105,86.276 244.963,86.233 245.919,83.689C246.641,81.769 249.469,82.025 251.5,81.966Z"/>
    </g>
</svg>
