<svg version="1" xmlns="http://www.w3.org/2000/svg" width="666.667" height="666.667" viewBox="0 0 500.000000 500.000000"><path d="M56.2 250.5V493H188V349l43.8-.1c24 0 45.3-.2 47.2-.4 1.9-.2 6.4-.6 10-.9 7.5-.7 9-1 22.3-3.7 11-2.3 21.9-5.4 31.7-9.2 7.9-3 24.9-11.3 27.1-13.3.8-.8 1.9-1.4 2.2-1.4.4 0 3.1-1.7 5.9-3.7 18.1-12.7 32.8-28.1 42.7-44.8 2.3-3.9 4.6-7.7 5.1-8.5 5.6-8.9 15-37 16.6-49.5.3-2.2.7-4.5.9-5.2.6-1.9 1.9-23.1 1.8-30.8 0-14.2-1.1-23.8-4.7-42.2-1.2-5.8-5.1-18.2-8.2-26.1-3.8-9.4-11.1-23.5-12.5-24-.5-.2-.9-.8-.9-1.4 0-1.3-7.1-11.1-12.8-17.7C393.8 51.8 377.5 39 360.4 30c-16-8.5-39.2-16.2-54.9-18.4-7.3-1-12-1.8-14-2.4-1.1-.3-54.5-.7-118.7-.9L56.2 7.9v242.6zm197.1-135.6c35.6 6.2 55.5 30.6 54.6 67-.3 11.5-2.3 20-7.1 29.9-6.8 14-20.3 25.4-35.8 30.3-12.5 4-18.7 4.5-50 4.7l-27 .1V113.3l29.3.2c17.4.1 31.9.6 36 1.4z"/></svg>